# xmcd
#
# Track frame offsets:
#	150
#	19160
#	30352
#	43605
#	61085
#	74532
#	87733
#	101164
#	114177
#	124869
#	139850
#	151226
#	169598
#	183295
#	197453
#	216182
#	229735
#	242742
#
# Disc length: 3469 seconds
#
# Revision: 2
# Processed by: cddbd v1.5.2PL0 Copyright (c) Steve Scherf et al.
# Submitted via: EZCDAudioConverter 2.1.7.1
#
DISCID=f10d8b12
DTITLE=Magic Mixture - This The Magic Mixture
DYEAR=1968
DGENRE=
TTITLE0=(I'm So) Sad
TTITLE1=Urge To Leave
TTITLE2=You
TTITLE3=Slowly The Day
TTITLE4=New Man
TTITLE5=Living On A Hill
TTITLE6=It's Alright By Me
TTITLE7=When I Was Young
TTITLE8=Hey Little Girl
TTITLE9=Tomorrow's Sun
TTITLE10=Motorbike Song
TTITLE11=Moonbeams
TTITLE12=It's Alright By Me
TTITLE13=Slowly The Day
TTITLE14=Captain Marvel
TTITLE15=Pearly Queen
TTITLE16=Fresh Garbage
TTITLE17=My Days Are Numbered
EXTD=
EXTT0=
EXTT1=
EXTT2=
EXTT3=
EXTT4=
EXTT5=
EXTT6=
EXTT7=
EXTT8=
EXTT9=
EXTT10=
EXTT11=
EXTT12=
EXTT13=
EXTT14=
EXTT15=
EXTT16=
EXTT17=
PLAYORDER=
